<svg xmlns="http://www.w3.org/2000/svg" xmlns:xlink="http://www.w3.org/1999/xlink" width="38" height="38" viewBox="0 0 38 38"><defs><path id="w9xea" d="M1176 4275a6 6 0 0 1 6-6h26a6 6 0 0 1 6 6v26a6 6 0 0 1-6 6h-26a6 6 0 0 1-6-6z"/><path id="w9xec" d="M1197.7 4280.003l-1.92-.003c-2.155 0-3.549 1.546-3.549 3.938v1.815h-1.93c-.166 0-.301.146-.301.326v2.631c0 .18.135.326.301.326h1.93v6.638c0 .18.135.326.302.326h2.517c.167 0 .302-.146.302-.326v-6.638h2.256c.166 0 .301-.146.301-.326l.002-2.63a.343.343 0 0 0-.09-.231.29.29 0 0 0-.213-.096h-2.256v-1.539c0-.74.163-1.115 1.054-1.115h1.293c.166 0 .301-.147.301-.327v-2.442c0-.18-.135-.326-.3-.327z"/><linearGradient id="w9xeb" x1="1244.5" x2="1179.24" y1="4336.63" y2="4269" gradientUnits="userSpaceOnUse"><stop offset="0" stop-color="#1acbfd"/><stop offset="1" stop-color="#345aff"/></linearGradient></defs><g><g transform="translate(-1176 -4269)"><use fill="url(#w9xeb)" xlink:href="#w9xea"/></g><g transform="translate(-1176 -4269)"><use fill="#fff" xlink:href="#w9xec"/></g></g></svg>