<svg xmlns="http://www.w3.org/2000/svg" xmlns:xlink="http://www.w3.org/1999/xlink" width="38" height="38" viewBox="0 0 38 38"><defs><path id="kszta" d="M1314 4275a6 6 0 0 1 6-6h26a6 6 0 0 1 6 6v26a6 6 0 0 1-6 6h-26a6 6 0 0 1-6-6z"/><path id="ksztc" d="M1331.562 4289.248h2.923a3.718 3.718 0 0 1-3.53 2.478 3.723 3.723 0 0 1-3.68-3.565 3.717 3.717 0 0 1 3.709-3.86c.958 0 1.833.365 2.492.964a.403.403 0 0 0 .547-.002l1.074-1.01a.401.401 0 0 0 0-.584 5.962 5.962 0 0 0-3.994-1.638c-3.3-.064-6.08 2.64-6.103 5.94a5.984 5.984 0 0 0 11.958.38c.004-.04.007-1.374.007-1.374h-5.403a.401.401 0 0 0-.4.401v1.47c0 .22.179.4.4.4"/><path id="ksztd" d="M1342.045 4286.955v-1.57a.384.384 0 0 0-.384-.385h-1.322a.384.384 0 0 0-.384.384v1.57h-1.57a.384.384 0 0 0-.385.385v1.322c0 .212.172.384.384.384h1.57v1.57c0 .213.173.385.385.385h1.322a.384.384 0 0 0 .384-.384v-1.57h1.57a.384.384 0 0 0 .385-.385v-1.322a.384.384 0 0 0-.384-.384h-1.57"/><linearGradient id="ksztb" x1="1382.5" x2="1317.24" y1="4336.63" y2="4269" gradientUnits="userSpaceOnUse"><stop offset="0" stop-color="#1acbfd"/><stop offset="1" stop-color="#345aff"/></linearGradient></defs><g><g transform="translate(-1314 -4269)"><use fill="url(#ksztb)" xlink:href="#kszta"/></g><g clip-path="url(#clip-DE2D2BD1-B0D0-480D-A5E5-EE443C3C9941)" transform="translate(-1314 -4269)"><use fill="#fbfcfd" xlink:href="#ksztc"/></g><g transform="translate(-1314 -4269)"><use fill="#fbfcfd" xlink:href="#ksztd"/></g></g></svg>