<svg xmlns="http://www.w3.org/2000/svg" xmlns:xlink="http://www.w3.org/1999/xlink" width="186" height="186" viewBox="0 0 186 186"><defs><path id="ygslb" d="M290.33 300.67a2 2 0 0 1 2-2h109.33a2 2 0 0 1 2 2V410a2 2 0 0 1-2 2H292.33a2 2 0 0 1-2-2z"/><path id="ygsld" d="M267 282c0-11.046 8.954-20 20-20h120c11.046 0 20 8.954 20 20v120c0 11.046-8.954 20-20 20H287c-11.046 0-20-8.954-20-20z"/><path id="ygslf" d="M367.864 370.17c-.439-1.296-1.607-2.16-2.916-2.16h-46.913c-1.497 0-2.78 1.124-3.046 2.67l-1.402 8.116c-.063.371-.05.758.073 1.111.295.848 1.044 1.368 1.85 1.368h53.294c.401 0 .801-.105 1.132-.341.777-.552 1.057-1.547.763-2.41z"/><path id="ygslg" d="M355.958 316.725h-2.668c-1.085 0-1.964-.787-1.964-1.757 0-.971.879-1.757 1.964-1.757h2.668c1.085 0 1.964.786 1.964 1.757 0 .97-.879 1.757-1.964 1.757zm21.253 11.251l-15.137-20.235 2.913-7.02c.257-.619.102-1.313-.4-1.798-.502-.485-1.267-.677-1.98-.496l-14.272 3.597c-1.396-.023-6.634.073-12.445 2.446-6.14 2.506-14.101 8.117-17.16 20.607-4.223 17.242-.113 30.404 2.437 36.294h40.422l3.608-3.216c.654-.583.763-1.493.262-2.186-3.328-4.61-11.18-16.216-14.215-23.438 1.113.34 2.373.558 3.704.496a9.25 9.25 0 0 0 5.16-1.841l5.54 3.293c1.713 1.017 3.835 1.33 5.824.86 1.99-.471 3.658-1.681 4.578-3.322l1.283-2.286a1.587 1.587 0 0 0-.122-1.755z"/><linearGradient id="ygslc" x1="403.67" x2="290.33" y1="412" y2="298.67" gradientUnits="userSpaceOnUse"><stop offset="0" stop-color="#ff7676" stop-opacity=".3"/><stop offset="1" stop-color="#f54ea2" stop-opacity=".3"/></linearGradient><filter id="ygsla" width="192%" height="192%" x="-36%" y="-36%" filterUnits="objectBoundingBox"><feGaussianBlur in="SourceGraphic" result="FeGaussianBlur1064Out" stdDeviation="15 15"/></filter><linearGradient id="ygsle" x1="427" x2="267" y1="422" y2="262" gradientUnits="userSpaceOnUse"><stop offset="0" stop-color="#ff7676"/><stop offset="1" stop-color="#f54ea2"/></linearGradient></defs><g><g transform="translate(-254 -262)"><g><g filter="url(#ygsla)"><use fill="url(#ygslc)" xlink:href="#ygslb"/><use fill-opacity=".05" xlink:href="#ygslb"/></g><g><use fill="url(#ygsle)" xlink:href="#ygsld"/></g></g><g transform="matrix(-1 0 0 1 691 0)"><g><use fill="#fff" xlink:href="#ygslf"/></g><g><use fill="#fff" xlink:href="#ygslg"/></g></g></g></g></svg>