<svg xmlns="http://www.w3.org/2000/svg" xmlns:xlink="http://www.w3.org/1999/xlink" width="186" height="196" viewBox="0 0 186 196"><defs><path id="w0llb" d="M293.33 631.67a2 2 0 0 1 2-2h109.33a2 2 0 0 1 2 2V741a2 2 0 0 1-2 2H295.33a2 2 0 0 1-2-2z"/><path id="w0lld" d="M270 603c0-11.046 8.954-20 20-20h120c11.046 0 20 8.954 20 20v120c0 11.046-8.954 20-20 20H290c-11.046 0-20-8.954-20-20z"/><path id="w0llf" d="M310.68 632.33c0-6.075 4.925-11 11-11h50.35c6.075 0 11 4.925 11 11v45.783l9.14 9.14a5 5 0 0 1 0 7.071l-7.07 7.072a5 5 0 0 1-7.072 0l-8.085-8.086H310.68z"/><linearGradient id="w0llc" x1="406.67" x2="293.33" y1="743" y2="629.67" gradientUnits="userSpaceOnUse"><stop offset="0" stop-color="#1bcedf" stop-opacity=".3"/><stop offset="1" stop-color="#5b247a" stop-opacity=".3"/></linearGradient><filter id="w0lla" width="192%" height="192%" x="-36%" y="-36%" filterUnits="objectBoundingBox"><feGaussianBlur in="SourceGraphic" result="FeGaussianBlur1103Out" stdDeviation="15 15"/></filter><linearGradient id="w0lle" x1="430" x2="270" y1="743" y2="583" gradientUnits="userSpaceOnUse"><stop offset="0" stop-color="#17ead9" stop-opacity=".1"/><stop offset=".34" stop-color="#22d9db"/><stop offset="1" stop-color="#6078ea"/></linearGradient></defs><g><g transform="translate(-257 -583)"><g><g filter="url(#w0lla)"><use fill="url(#w0llc)" xlink:href="#w0llb"/><use fill="#fff" fill-opacity=".05" xlink:href="#w0llb"/></g><g><use fill="url(#w0lle)" xlink:href="#w0lld"/></g></g><g><g transform="rotate(90 351 662)"><use fill="#fff" xlink:href="#w0llf"/></g></g></g></g></svg>