<svg xmlns="http://www.w3.org/2000/svg" xmlns:xlink="http://www.w3.org/1999/xlink" width="186" height="196" viewBox="0 0 186 196"><defs><path id="vxy9b" d="M615.33 631.67a2 2 0 0 1 2-2h109.33a2 2 0 0 1 2 2V741a2 2 0 0 1-2 2H617.33a2 2 0 0 1-2-2z"/><path id="vxy9d" d="M592 603c0-11.046 8.954-20 20-20h120c11.046 0 20 8.954 20 20v120c0 11.046-8.954 20-20 20H612c-11.046 0-20-8.954-20-20z"/><path id="vxy9f" d="M639.209 624.19h46.6c3.7 0 6.711 3.286 6.711 7.322v6.011h-53.915c-3.305 0-5.966-2.819-6.085-6.432.203-3.876 3.13-6.901 6.689-6.901z"/><path id="vxy9g" d="M692.522 674.077c-4.263 0-7.737-3.456-7.737-7.713 0-4.251 3.474-7.715 7.737-7.715 4.271 0 7.738 3.464 7.738 7.715 0 4.257-3.467 7.713-7.738 7.713zm12.952-34.063h-7.415c-.28 0-.559.021-.832.059-.059.007-.119.007-.178.007-.096 0-.183-.03-.279-.052-.053-.006-.111.007-.162-.014h-57.676c-.317 0-.627-.015-.936-.045-.102-.007-.198-.028-.302-.035-.206-.03-.406-.053-.604-.096-.119-.023-.236-.059-.347-.081-.183-.046-.36-.081-.53-.132-.125-.038-.244-.089-.368-.126-.155-.059-.317-.11-.48-.17-.118-.05-.235-.109-.354-.162a3.982 3.982 0 0 1-.442-.212c-.119-.059-.236-.125-.355-.19-.132-.082-.271-.162-.403-.243-.12-.074-.223-.155-.34-.236-.125-.088-.251-.177-.375-.28-.104-.081-.208-.17-.31-.256-.089-.081-.177-.15-.266-.23v46.294c0 3.884 3.162 7.04 7.046 7.04h65.908c3.885 0 7.046-3.156 7.046-7.04v-36.762c0-3.884-3.16-7.038-7.046-7.038z"/><linearGradient id="vxy9c" x1="728.67" x2="615.33" y1="743" y2="629.67" gradientUnits="userSpaceOnUse"><stop offset="0" stop-color="#1bcedf" stop-opacity=".3"/><stop offset="1" stop-color="#5b247a" stop-opacity=".3"/></linearGradient><filter id="vxy9a" width="192%" height="192%" x="-36%" y="-36%" filterUnits="objectBoundingBox"><feGaussianBlur in="SourceGraphic" result="FeGaussianBlur1136Out" stdDeviation="15 15"/></filter><linearGradient id="vxy9e" x1="592" x2="752" y1="583" y2="743" gradientUnits="userSpaceOnUse"><stop offset="0" stop-color="#43e695"/><stop offset="1" stop-color="#3bb2b8"/></linearGradient></defs><g><g transform="translate(-579 -583)"><g filter="url(#vxy9a)"><use fill="url(#vxy9c)" xlink:href="#vxy9b"/><use fill="#fff" fill-opacity=".05" xlink:href="#vxy9b"/></g><g><use fill="url(#vxy9e)" xlink:href="#vxy9d"/></g><g transform="rotate(-45 672.5 663)"><g><use fill="#fff" xlink:href="#vxy9f"/></g><g><use fill="#fff" xlink:href="#vxy9g"/></g></g></g></g></svg>