<svg xmlns="http://www.w3.org/2000/svg" xmlns:xlink="http://www.w3.org/1999/xlink" width="186" height="196" viewBox="0 0 186 196"><defs><path id="2hoac" d="M614.33 310.67a2 2 0 0 1 2-2h109.33a2 2 0 0 1 2 2V420a2 2 0 0 1-2 2H616.33a2 2 0 0 1-2-2z"/><path id="2hoae" d="M591 282c0-11.046 8.954-20 20-20h120c11.046 0 20 8.954 20 20v120c0 11.046-8.954 20-20 20H611c-11.046 0-20-8.954-20-20z"/><path id="2hoaa" d="M674.31 288.72h-30v103.333h60V288.72z"/><path id="2hoah" d="M675.01 333.013c-4.6 0-8.344-3.727-8.344-8.32 0-4.61 3.744-8.336 8.343-8.336a8.329 8.329 0 0 1 8.331 8.336c0 4.593-3.728 8.32-8.33 8.32zm18.951 21.761V342.08c0-28.33-11.744-45.458-16.658-51.367a2.78 2.78 0 0 0-2.14-1.022c-.816 0-1.6.362-2.136.99-4.99 5.909-16.966 23.037-16.966 51.4v12.71l-2.31 1.57c-4.417 3.048-7.081 8.157-7.081 13.608v15.164c0 .893.493 1.726 1.261 2.153a2.332 2.332 0 0 0 2.447-.125l7.468-5.077a12.641 12.641 0 0 1 7.082-2.184h5.478v7.353c0 1.352 1.08 2.438 2.404 2.438h4.386c1.325 0 2.4-1.086 2.4-2.438V379.9h5.482c2.526 0 4.99.752 7.082 2.184l7.468 5.077a2.334 2.334 0 0 0 2.448.125 2.444 2.444 0 0 0 1.26-2.153v-15.164c0-5.451-2.663-10.543-7.081-13.609z"/><linearGradient id="2hoad" x1="614.33" x2="727.67" y1="308.67" y2="422" gradientUnits="userSpaceOnUse"><stop offset="0" stop-color="#fce38a" stop-opacity=".3"/><stop offset="1" stop-color="#f38181" stop-opacity=".3"/></linearGradient><filter id="2hoab" width="192%" height="192%" x="-36%" y="-36%" filterUnits="objectBoundingBox"><feGaussianBlur in="SourceGraphic" result="FeGaussianBlur1190Out" stdDeviation="15 15"/></filter><linearGradient id="2hoaf" x1="737.16" x2="591" y1="422" y2="296.39" gradientUnits="userSpaceOnUse"><stop offset="0" stop-color="#fce38a"/><stop offset="1" stop-color="#f38181"/></linearGradient><clipPath id="2hoag"><use xlink:href="#2hoaa"/></clipPath></defs><g><g transform="translate(-578 -262)"><g><g filter="url(#2hoab)"><use fill="url(#2hoad)" xlink:href="#2hoac"/><use fill-opacity=".05" xlink:href="#2hoac"/></g><g><use fill="url(#2hoaf)" xlink:href="#2hoae"/></g></g><g transform="rotate(42 674.5 340)"><g/><g clip-path="url(#2hoag)"><use fill="#fff" xlink:href="#2hoah"/></g></g></g></g></svg>