<svg xmlns="http://www.w3.org/2000/svg" xmlns:xlink="http://www.w3.org/1999/xlink" width="38" height="38" viewBox="0 0 38 38"><defs><path id="63axa" d="M1268 4275a6 6 0 0 1 6-6h26a6 6 0 0 1 6 6v26a6 6 0 0 1-6 6h-26a6 6 0 0 1-6-6z"/><path id="63axc" d="M1295 4284.538c-.586.26-1.221.44-1.885.519a3.307 3.307 0 0 0 1.445-1.818 6.54 6.54 0 0 1-2.09.796 3.283 3.283 0 0 0-5.59 2.994 9.318 9.318 0 0 1-6.766-3.429 3.259 3.259 0 0 0-.445 1.652c0 1.137.58 2.144 1.46 2.729a3.232 3.232 0 0 1-1.484-.41v.04a3.291 3.291 0 0 0 2.631 3.223 3.386 3.386 0 0 1-1.484.054 3.293 3.293 0 0 0 3.066 2.28 6.595 6.595 0 0 1-4.077 1.402c-.264 0-.522-.015-.781-.044a9.287 9.287 0 0 0 5.033 1.474c6.035 0 9.336-5.001 9.336-9.337l-.01-.425a6.612 6.612 0 0 0 1.641-1.7z"/><linearGradient id="63axb" x1="1336.5" x2="1271.24" y1="4336.63" y2="4269" gradientUnits="userSpaceOnUse"><stop offset="0" stop-color="#1acbfd"/><stop offset="1" stop-color="#345aff"/></linearGradient></defs><g><g transform="translate(-1268 -4269)"><use fill="url(#63axb)" xlink:href="#63axa"/></g><g transform="translate(-1268 -4269)"><use fill="#fbfcfd" xlink:href="#63axc"/></g></g></svg>