<svg id="clock" width="16" height="16" viewBox="0 0 16 16" fill="none" xmlns="http://www.w3.org/2000/svg">
<path d="M8 16C12.4183 16 16 12.4183 16 8C16 3.58172 12.4183 0 8 0C3.58172 0 0 3.58172 0 8C0 12.4183 3.58172 16 8 16Z" fill="#333333"/>
<path d="M7 14C10.866 14 14 10.866 14 7C14 3.13401 10.866 0 7 0C3.13401 0 0 3.13401 0 7C0 10.866 3.13401 14 7 14Z" transform="translate(1 1)" fill="white"/>
<path d="M3.15806 1.03561C3.395 0.798671 3.395 0.414609 3.15806 0.177703C2.92112 -0.0592344 2.53706 -0.0592344 2.30016 0.177703L0 2.47786L0.857906 3.33577L3.15806 1.03561Z" transform="translate(7.5498 5.11475)" fill="#333333"/>
<path d="M3.52336 0L0.111047 3.41231C-0.0370156 3.56037 -0.0370156 3.80044 0.111047 3.94853C0.185109 4.02253 0.282109 4.05959 0.37914 4.05959C0.476172 4.05959 0.573234 4.02256 0.647234 3.94853L4.05955 0.536219L3.52336 0Z" transform="translate(4.10876 7.83154)" fill="#333333"/>
<path d="M1.03561 0.177703C0.798671 -0.0592344 0.414609 -0.0592344 0.177703 0.177703C-0.0592344 0.414641 -0.0592344 0.798703 0.177703 1.03561L3.28217 4.14008L4.14008 3.28217L1.03561 0.177703Z" transform="translate(4.31018 4.31006)" fill="#333333"/>
<path d="M0.947875 1.89575C0.425219 1.89575 0 1.47053 0 0.947875C0 0.425219 0.425219 0 0.947875 0C1.47053 0 1.89575 0.425219 1.89575 0.947875C1.89575 1.47053 1.47053 1.89575 0.947875 1.89575Z" transform="translate(7.05212 7.05225)" fill="#333333"/>
<path d="M0.947875 0.758312H0.379156C0.16975 0.758312 0 0.588531 0 0.379156C0 0.169781 0.16975 0 0.379156 0H0.947875C1.15728 0 1.32703 0.169781 1.32703 0.379156C1.32703 0.588531 1.15728 0.758312 0.947875 0.758312Z" transform="translate(2.65393 7.62061)" fill="#333333"/>
<path d="M0.379156 1.327C0.16975 1.327 0 1.15722 0 0.947844V0.379156C0 0.169781 0.16975 0 0.379156 0C0.588562 0 0.758312 0.169781 0.758312 0.379156V0.947875C0.758312 1.15722 0.588562 1.327 0.379156 1.327Z" transform="translate(7.62073 2.65381)" fill="#333333"/>
<path d="M0.947875 0.758312H0.379157C0.169751 0.758312 0 0.588531 0 0.379156C0 0.169781 0.169751 0 0.379157 0H0.947875C1.15728 0 1.32703 0.169781 1.32703 0.379156C1.32703 0.588531 1.15728 0.758312 0.947875 0.758312Z" transform="translate(12.0188 7.62061)" fill="#333333"/>
<path d="M0.379156 1.32703C0.16975 1.32703 0 1.15725 0 0.947875V0.379157C0 0.169782 0.16975 0 0.379156 0C0.588562 0 0.758312 0.169782 0.758312 0.379157V0.947875C0.758312 1.15725 0.588562 1.32703 0.379156 1.32703Z" transform="translate(7.62073 12.0186)" fill="#333333"/>
</svg>
